<?xml version="1.0" encoding="utf-8"?>
<!-- Generator: Adobe Illustrator 24.1.1, SVG Export Plug-In . SVG Version: 6.00 Build 0)  -->
<svg version="1.1" baseProfile="tiny" id="Layer_1" xmlns="http://www.w3.org/2000/svg" xmlns:xlink="http://www.w3.org/1999/xlink"
	 x="0px" y="0px" viewBox="0 0 800 400" xml:space="preserve">
<g>
	<g>
		<g>
			<path fill="#78797C" d="M374.7,288.4c-0.1,1.2-0.1,2.5-0.2,3.9c-0.1,1.3-0.1,2.9-0.2,4.7c-0.1,1.8-0.2,3.9-0.3,6.4
				c-0.1,2.5-0.2,5.4-0.3,8.9c0,1.5-0.1,2.9-0.1,4.1c0,1.2-0.1,2.3-0.1,3.2c0,0.9,0,1.8,0,2.6v4.5h-0.7c-0.4,0-0.7,0-1,0
				c-0.3,0-0.5,0-0.7,0c-0.2,0-0.5,0-0.8,0c-0.3,0-0.6,0-1,0h-0.8l0.4-6.6c-0.2,0.4-0.4,0.7-0.6,1.1c-0.2,0.3-0.4,0.6-0.6,0.9
				c-1.1,1.7-2.5,3-4.3,3.9c-1.9,0.9-4,1.4-6.1,1.3c-1.8,0-3.7-0.3-5.4-1c-1.6-0.6-3-1.6-4.1-2.8c-1.2-1.3-2.1-2.8-2.7-4.4
				c-0.7-1.8-1-3.8-1-5.7c0-2.5,0.4-5,1.3-7.4c0.8-2.1,2.1-4.1,3.8-5.6c1.7-1.6,3.7-2.8,5.9-3.6c2.5-0.9,5.1-1.3,7.7-1.3
				c0.6,0,1.1,0,1.6,0s1,0,1.4,0.1c0.5,0,1,0.1,1.6,0.2l2,0.3c0.1-1.4,0.1-2.5,0.1-3.4c0-0.9,0-2,0-3.2v-2.3l-0.1-1.6l0.9,0.1h3.9
				l0.7-0.1L374.7,288.4z M369.1,299.9c-1-0.3-1.9-0.5-2.9-0.7c-0.9-0.1-1.8-0.2-2.7-0.2c-2,0-4,0.3-5.8,1c-1.7,0.6-3.2,1.6-4.5,2.9
				c-1.3,1.3-2.3,2.8-2.9,4.4c-0.7,1.8-1,3.8-1,5.8c0,3.2,0.8,5.7,2.5,7.5c1.7,1.9,4.2,2.9,6.7,2.8c3.6,0.1,7-1.9,8.5-5.2
				c0.7-1.3,1.2-2.8,1.5-4.3c0.1-0.6,0.2-1.2,0.2-1.8c0.1-0.6,0.1-1.3,0.2-2.2c0.1-0.9,0.1-1.9,0.2-3.2c0-1.3,0.1-2.8,0.2-4.7
				L369.1,299.9z"/>
		</g>
		<g>
			<path fill="#78797C" d="M389.7,296.1c-0.1,0.7-0.1,1.4-0.2,1.9c0,0.6,0,1-0.1,1.4c-0.1,1.6-0.2,3.5-0.3,5.6
				c-0.1,2.1-0.2,4.3-0.3,6.6c-0.1,2.3-0.2,4.4-0.2,6.6s-0.1,4.1-0.1,5.7v2.8h-0.8c-0.4,0-0.7,0-1,0c-0.3,0-0.6,0-0.9,0
				c-0.3,0-0.5,0-0.8,0s-0.7,0-1.2,0h-0.8c0.1-0.8,0.1-1.5,0.2-2c0-0.6,0-1.1,0.1-1.5c0.1-1.4,0.2-3.1,0.3-5.2
				c0.1-2.1,0.2-4.5,0.3-7.2c0.1-2.8,0.2-5.3,0.3-7.4c0.1-2.1,0.1-3.9,0.1-5.3v-1.9h0.9c0.4,0,0.8,0,1.1,0c0.3,0,0.6,0,0.8,0
				c0.2,0,0.5,0,0.8,0c0.3,0,0.7,0,1.1,0H389.7z M390,286.1v1.4l-0.1,1.3l-0.1,0.9h-0.7c-0.3,0-0.7-0.1-1.1-0.1h-1
				c-0.3,0-0.7,0-1.1,0s-0.7,0-1.1,0h-0.8l0.1-1c0-0.4,0.1-0.9,0.1-1.3v-2c0.7,0,1.2,0,1.6,0s0.9,0,1.5,0c0.6,0,1,0,1.4,0
				c0.3,0,0.8,0,1.4,0L390,286.1z"/>
		</g>
		<g>
			<path fill="#78797C" d="M428.3,296.7c-0.1,0.7-0.1,1.3-0.2,1.8c0,0.5-0.1,1-0.1,1.4c-0.1,1.3-0.3,4.2-0.6,8.6
				c-0.1,2.5-0.2,4.6-0.3,6.3c-0.1,1.6-0.1,2.8-0.2,3.5l-0.2,10.3c-0.1,4.4-1.3,7.6-3.7,9.7c-2.4,2.1-6.1,3.1-11.1,3.1
				c-0.8,0-1.6,0-2.3-0.1c-0.8-0.1-1.5-0.1-2.3-0.2c-0.7,0-1.2-0.1-1.8-0.1c-0.5-0.1-1.1-0.1-1.6-0.2l-1.8-0.3
				c-0.6-0.1-1.3-0.3-2.2-0.5l-0.1-0.6c0-0.4-0.1-0.7-0.1-1v-0.5c0-0.1,0-0.2,0-0.5c0-0.2,0-0.6-0.1-1.1l-0.1-0.7l1.5,0.4
				c0.4,0.1,0.7,0.2,1.1,0.3c2.9,0.8,5.9,1.2,8.9,1.3c2,0.1,3.9-0.3,5.8-1c1.5-0.6,2.7-1.6,3.5-3c0.3-0.6,0.5-1.1,0.7-1.7
				c0.2-0.8,0.4-1.5,0.5-2.3c0.1-0.9,0.2-2.2,0.3-3.6c0.1-1.5,0.1-3.3,0.2-5.6c-0.4,0.7-0.8,1.4-1.2,2.1c-1.1,1.6-2.6,2.9-4.4,3.6
				c-2,0.9-4.2,1.3-6.4,1.3c-4.1,0-7.3-1.2-9.6-3.6c-2.3-2.4-3.5-5.7-3.5-10c0-2.6,0.4-5.2,1.4-7.6c0.9-2.2,2.2-4.1,3.9-5.8
				c1.8-1.6,3.9-2.9,6.2-3.6c2.7-0.9,5.4-1.3,8.2-1.3c1.9,0,3.9,0.1,5.8,0.4c0.5,0,0.9,0.1,1.3,0.2l1.3,0.2l1.4,0.2L428.3,296.7z
				 M422.9,300c-1.4-0.3-2.6-0.5-3.4-0.6c-0.8-0.1-1.8-0.1-2.9-0.1c-2.1,0-4.1,0.3-6.1,0.9c-1.7,0.6-3.2,1.5-4.5,2.8
				c-1.3,1.3-2.3,2.9-2.9,4.6c-0.7,1.8-1.1,3.8-1,5.8c0,3.2,0.8,5.7,2.5,7.5c1.6,1.8,3.9,2.7,6.9,2.7c3.4,0.1,6.7-1.6,8.5-4.5
				c0.5-0.7,0.9-1.5,1.2-2.3c0.4-0.9,0.7-1.9,0.8-2.9c0.2-1.4,0.4-2.9,0.5-4.3c0.1-1.7,0.2-3.9,0.3-6.6L422.9,300z"/>
		</g>
		<g>
			<path fill="#78797C" d="M443.2,296.1c-0.1,0.7-0.1,1.4-0.1,1.9c0,0.6-0.1,1-0.1,1.4c-0.1,1.6-0.2,3.5-0.3,5.6
				c-0.1,2.1-0.2,4.3-0.3,6.6c-0.1,2.3-0.1,4.4-0.2,6.6c-0.1,2.1-0.1,4.1-0.1,5.7v2.8h-0.9c-0.4,0-0.7,0-1,0s-0.6,0-0.9,0
				c-0.3,0-0.5,0-0.8,0c-0.3,0-0.7,0-1.2,0h-0.9c0.1-0.8,0.1-1.5,0.1-2c0-0.6,0.1-1.1,0.1-1.5c0.1-1.4,0.2-3.1,0.3-5.2
				c0.1-2.1,0.2-4.5,0.3-7.2c0.1-2.8,0.2-5.3,0.3-7.4c0.1-2.1,0.1-3.9,0.1-5.3v-1.9h0.8c0.4,0,0.8,0,1.1,0c0.3,0,0.6,0,0.8,0
				c0.2,0,0.5,0,0.8,0s0.7,0,1.1,0H443.2z M443.6,286.1v1.4l-0.1,1.3l-0.1,0.8h-0.7c-0.3,0-0.7-0.1-1.1-0.1h-1c-0.3,0-0.7,0-1.1,0
				c-0.4,0-0.7,0-1.1,0h-0.8l0.1-1c0-0.4,0.1-0.9,0.1-1.3v-2c0.7,0,1.2,0,1.6,0c0.4,0,0.9,0,1.5,0c0.6,0,1,0,1.4,0
				c0.3,0,0.8,0,1.4,0L443.6,286.1z"/>
		</g>
		<g>
			<path fill="#78797C" d="M467.5,296.2c-0.1,0.7-0.1,1.4-0.2,1.8c0,0.5,0,1.1,0,1.8h-8.4l-0.1,1.9l-0.3,6l-0.2,2.8
				c-0.1,1.5-0.1,2.8-0.2,4c0,1.2-0.1,2.3-0.1,3.2v0.3c0,1.9,0.3,3.3,1,4.1c0.8,0.9,1.9,1.4,3.1,1.3c0.6,0,1.3-0.1,1.9-0.2
				c0.6-0.1,1.5-0.3,2.7-0.6c-0.1,0.6-0.2,1.1-0.3,1.6c-0.1,0.4-0.2,1-0.3,1.7l-0.1,0.7c-0.7,0.2-1.2,0.3-1.7,0.4
				c-0.5,0.1-0.9,0.2-1.4,0.2c-0.4,0.1-0.8,0.1-1.3,0.1c-0.4,0-0.8,0-1.4,0c-2.7,0-4.6-0.6-5.8-1.6c-1.2-1.1-1.8-2.9-1.8-5.2
				c0-0.3,0-0.7,0-1.2c0-0.5,0-1,0.1-1.6l0.4-6.7l0.2-3.1l0.3-5.9l0.1-2.1h-4c0.1-0.5,0.1-0.9,0.1-1.4c0-0.5,0-1.1,0.1-1.6l0.1-0.7
				h4.1c0.1-0.8,0.1-1.5,0.2-1.9c0-0.5,0-1.2,0.1-2.1l0.1-1.6l0.8-0.2c0.5-0.1,0.8-0.2,1.2-0.3c0.3-0.1,0.6-0.1,0.9-0.2
				c0.3,0,0.6-0.1,0.9-0.2l1.1-0.2l-0.1,1.3l-0.1,2l-0.1,2v1.5L467.5,296.2z"/>
		</g>
		<g>
			<path fill="#78797C" d="M497.9,303.2c0,1.7-0.1,4.6-0.4,8.6c-0.1,0.8-0.1,1.9-0.2,3c0,1.1-0.1,2.4-0.2,3.7c0,0.9-0.1,1.8-0.1,2.4
				c0,0.7,0,1.3-0.1,1.8c-0.1,0.6,0,1.2,0,1.8v2.1h-0.7c-0.3,0-0.6-0.1-1-0.1h-1c-0.3,0-0.6,0-0.9,0s-0.7,0-1,0h-0.7
				c0.1-1.1,0.2-2,0.2-2.8c0.1-0.8,0.1-1.5,0.2-2.2c0-0.7,0.1-1.4,0.1-2.1c0-0.7,0.1-1.4,0.1-2.3l0.2-6.2l0.1-2.3
				c-0.5,0.4-0.9,0.7-1.3,1c-0.4,0.3-0.8,0.5-1.2,0.7c-0.4,0.2-0.9,0.4-1.3,0.5c-0.5,0.2-1.1,0.4-1.8,0.6l-3.1,0.8
				c-3.2,0.9-5.4,1.9-6.7,2.9c-1.3,0.9-2,2.4-2,4c-0.1,1.5,0.6,2.9,1.8,3.7c1.6,1,3.4,1.4,5.2,1.3c0.5,0,1,0,1.5-0.1
				s0.9-0.1,1.4-0.2c0.5-0.1,1-0.2,1.5-0.3c0.5-0.1,1.1-0.3,1.8-0.5c-0.2,0.5-0.3,1-0.4,1.4s-0.3,1-0.4,1.7l-0.1,0.6l-1.9,0.3
				c-0.5,0.1-1,0.1-1.5,0.2l-1.4,0.1c-0.5,0-1.1,0-1.6,0c-7.2,0-10.7-2.7-10.7-8.2c0-2.1,0.9-4.2,2.5-5.6c0.6-0.5,1.2-1,1.9-1.5
				c0.8-0.5,1.7-0.9,2.5-1.2c1-0.4,2.2-0.8,3.5-1.2c1.4-0.4,3-0.8,5-1.3c1.9-0.3,3.8-1.1,5.4-2.2c1-0.8,1.7-2,1.6-3.3
				c0-1.3-0.7-2.5-1.8-3.2c-1.6-0.8-3.4-1.2-5.2-1.1c-0.7,0-1.3,0-2,0.1c-0.7,0.1-1.3,0.1-2,0.2l-1.8,0.3c-0.6,0.1-1.1,0.2-1.6,0.4
				c-0.6,0.2-1.1,0.3-1.8,0.6c-0.6,0.2-1.3,0.5-2.2,0.8c0-0.1,0.1-0.3,0.1-0.4c0-0.1,0-0.2,0.1-0.3c0-0.2,0.1-0.4,0.1-0.6
				c0-0.2,0-0.4,0.1-0.6c0.1-0.4,0.2-0.9,0.2-1.4l0.1-0.6l1.4-0.3c0.4-0.1,0.7-0.2,1-0.2c2.9-0.7,5.9-1,8.9-1.1c4,0,6.9,0.6,8.8,1.9
				C497,298.6,497.9,300.6,497.9,303.2z"/>
		</g>
		<g>
			<path fill="#78797C" d="M513.6,288.6c-0.1,1.6-0.2,3-0.2,4.4c-0.1,1.4-0.2,2.9-0.2,4.6c-0.1,1.7-0.2,3.7-0.3,6
				c-0.1,2.3-0.2,5.1-0.3,8.4c-0.1,2.6-0.2,4.9-0.2,6.8c-0.1,1.9-0.1,3.4-0.2,4.6l-0.1,3.2h-0.7c-0.4,0-0.7,0-1,0
				c-0.3,0-0.6,0-0.8,0h-0.7c-0.3,0-0.8,0-1.4,0h-0.8l0.2-3.3c0.1-1.4,0.2-3,0.3-4.9c0.1-1.9,0.2-4,0.3-6.5c0.1-2.6,0.2-5,0.3-7.2
				c0.1-2.2,0.2-4.2,0.2-6.1c0.1-1.9,0.1-3.6,0.2-5.2l0.1-4.9l0.1-3l0.9,0.1h3.8l0.8-0.1L513.6,288.6z"/>
		</g>
		<g>
			<path fill="#78797C" d="M568.6,310.7c0,2.3-0.3,4.6-1,6.8c-0.6,1.9-1.6,3.7-2.9,5.2c-1.2,1.4-2.7,2.6-4.4,3.4
				c-1.8,0.8-3.7,1.2-5.6,1.2c-1.6,0-3.2-0.2-4.7-0.7c-0.7-0.2-1.3-0.5-1.9-0.8c-0.6-0.3-1.1-0.6-1.6-1.1c-0.5-0.4-1-0.9-1.5-1.5
				c-0.5-0.7-1-1.4-1.5-2.1l-0.1,2.8l-0.2,6.1l-0.2,7.2v3h-5.4c0.1-1.6,0.2-2.9,0.3-4.1c0.1-1.2,0.2-2.3,0.2-3.4
				c0.1-1.1,0.1-2.4,0.2-3.7c0.1-1.3,0.1-2.9,0.2-4.8c0.1-2.4,0.2-4.7,0.3-7c0.1-2.3,0.1-4.5,0.2-6.6c0.1-2.1,0.1-4,0.2-5.8
				c0-1.8,0.1-3.3,0.1-4.6l0.1-3.1c0.6-0.2,1.2-0.3,1.6-0.4s0.9-0.2,1.2-0.2c2.2-0.4,4.1-0.8,5.8-1c1.7-0.2,3.4-0.3,5.1-0.3
				c2.5-0.1,4.9,0.3,7.3,1.1c1.9,0.7,3.6,1.8,4.9,3.4c1.2,1.4,2,3,2.5,4.7C568.4,306.5,568.7,308.6,568.6,310.7z M563.4,310.6
				c0-3.6-0.9-6.4-2.7-8.4c-1.8-2-4.3-3-7.5-3c-0.6,0-1.2,0-1.7,0.1l-1.8,0.2c-1,0.2-1.8,0.3-2.5,0.5c-0.7,0.2-1.6,0.5-2.8,0.8
				c-0.1,0.6-0.2,1.2-0.2,1.8c0,0.5-0.1,1.1-0.1,1.8c0,0.7-0.1,1.6-0.1,2.8c-0.1,2.5-0.2,4.2-0.2,5.2c0,1.6,0.2,3.3,0.6,4.9
				c0.4,1.3,1.2,2.5,2.1,3.5c0.9,0.9,1.9,1.6,3.1,2.1c1.2,0.5,2.4,0.7,3.7,0.7c1.4,0,2.8-0.3,4.1-1c1.2-0.6,2.3-1.5,3.1-2.7
				c0.9-1.2,1.6-2.6,2-4.1C563.2,314.2,563.5,312.4,563.4,310.6L563.4,310.6z"/>
		</g>
		<g>
			<path fill="#78797C" d="M582.9,288.6c-0.1,1.6-0.2,3-0.2,4.4c-0.1,1.4-0.2,2.9-0.2,4.6c-0.1,1.7-0.2,3.7-0.3,6
				c-0.1,2.3-0.2,5.1-0.3,8.4c-0.1,2.6-0.2,4.9-0.2,6.8c-0.1,1.9-0.1,3.4-0.2,4.6l-0.1,3.2h-0.7c-0.4,0-0.7,0-1,0s-0.6,0-0.8,0h-0.7
				c-0.3,0-0.8,0-1.4,0h-0.9l0.2-3.3c0.1-1.4,0.2-3,0.3-4.9c0.1-1.9,0.2-4,0.3-6.5c0.1-2.6,0.2-5,0.3-7.2c0.1-2.2,0.2-4.2,0.2-6.1
				c0.1-1.8,0.1-3.6,0.2-5.2l0.1-4.9l0.1-3l0.9,0.1h3.8l0.8-0.1L582.9,288.6z"/>
		</g>
		<g>
			<path fill="#78797C" d="M616.4,303.2c0,1.7-0.1,4.6-0.4,8.6c-0.1,0.8-0.1,1.9-0.2,3c0,1.1-0.1,2.4-0.2,3.7c0,0.9-0.1,1.8-0.1,2.4
				c0,0.7,0,1.3-0.1,1.8c-0.1,0.6,0,1.2,0,1.8v2.1h-0.7c-0.3,0-0.6-0.1-1-0.1h-1c-0.3,0-0.6,0-0.9,0c-0.3,0-0.7,0-1.1,0h-0.7
				c0.1-1.1,0.2-2,0.2-2.8c0.1-0.8,0.1-1.5,0.2-2.2c0-0.7,0.1-1.4,0.1-2.1c0-0.7,0.1-1.4,0.1-2.3l0.2-6.2l0.1-2.3
				c-0.5,0.4-0.9,0.7-1.3,1c-0.4,0.3-0.8,0.5-1.2,0.7c-0.4,0.2-0.9,0.4-1.3,0.5c-0.5,0.2-1.1,0.4-1.8,0.6l-3.1,0.8
				c-3.2,0.9-5.4,1.9-6.7,2.9c-1.3,0.9-2,2.4-2,4c-0.1,1.5,0.6,2.9,1.8,3.7c1.6,1,3.4,1.4,5.2,1.3c0.5,0,1,0,1.5-0.1
				s0.9-0.1,1.4-0.2c0.5-0.1,1-0.2,1.5-0.3c0.5-0.1,1.1-0.3,1.8-0.5c-0.2,0.5-0.3,1-0.4,1.4s-0.3,1-0.4,1.7l-0.1,0.6
				c-0.7,0.1-1.3,0.2-1.9,0.3c-0.5,0.1-1,0.1-1.5,0.2l-1.5,0.1c-0.5,0-1,0-1.6,0c-7.2,0-10.7-2.7-10.7-8.2c0-2.1,0.9-4.2,2.5-5.6
				c0.6-0.5,1.2-1,1.9-1.5c0.8-0.5,1.7-0.9,2.5-1.2c1-0.4,2.2-0.8,3.5-1.2c1.4-0.4,3-0.8,5-1.3c1.9-0.3,3.8-1.1,5.4-2.2
				c1-0.8,1.7-2,1.6-3.3c0-1.3-0.7-2.5-1.9-3.2c-1.6-0.8-3.4-1.2-5.2-1.1c-0.7,0-1.3,0-2,0.1c-0.7,0.1-1.3,0.1-2,0.2l-1.9,0.3
				c-0.6,0.1-1.1,0.2-1.6,0.4c-0.6,0.2-1.1,0.3-1.8,0.6c-0.6,0.2-1.3,0.5-2.2,0.8c0-0.1,0.1-0.3,0.1-0.4c0-0.1,0-0.2,0.1-0.3
				c0-0.2,0.1-0.4,0.1-0.6c0-0.2,0-0.4,0.1-0.6c0.1-0.4,0.2-0.9,0.2-1.4l0.1-0.6l1.4-0.3c0.4-0.1,0.7-0.2,1-0.2
				c2.9-0.7,5.9-1,8.9-1.1c4,0,6.9,0.6,8.8,1.9C615.5,298.5,616.4,300.5,616.4,303.2z"/>
		</g>
		<g>
			<path fill="#78797C" d="M641,296.2c-0.1,0.7-0.1,1.4-0.1,1.8c0,0.5,0,1.1,0,1.8h-8.4l-0.1,1.9l-0.3,6l-0.2,2.8
				c-0.1,1.5-0.1,2.8-0.2,4c0,1.2-0.1,2.3-0.1,3.2v0.3c0,1.9,0.3,3.3,1,4.1c0.8,0.9,1.9,1.4,3.1,1.3c0.6,0,1.3-0.1,1.9-0.2
				c0.6-0.1,1.5-0.3,2.7-0.6c-0.1,0.6-0.2,1.1-0.3,1.6c-0.1,0.4-0.2,1-0.3,1.7l-0.1,0.7c-0.7,0.2-1.2,0.3-1.7,0.4
				c-0.5,0.1-0.9,0.2-1.4,0.2c-0.4,0.1-0.8,0.1-1.3,0.1c-0.4,0-0.9,0-1.4,0c-2.6,0-4.6-0.5-5.8-1.6c-1.2-1.1-1.8-2.8-1.8-5.3
				c0-0.3,0-0.7,0-1.2s0-1,0.1-1.6l0.4-6.7l0.2-3.1l0.3-5.9l0.1-2.1h-4c0.1-0.5,0.1-0.9,0.1-1.4c0-0.5,0-1.1,0.1-1.6l0.1-0.7h4.1
				c0.1-0.8,0.1-1.5,0.1-1.9c0-0.5,0.1-1.2,0.1-2.1l0.1-1.6l0.8-0.2c0.5-0.1,0.8-0.2,1.2-0.3c0.3-0.1,0.6-0.1,0.9-0.2
				c0.3,0,0.6-0.1,0.9-0.2l1.1-0.2l-0.1,1.3l-0.1,2l-0.1,2v1.5L641,296.2z"/>
		</g>
		<g>
			<path fill="#78797C" d="M663.4,289c-0.9-0.3-1.8-0.6-2.8-0.8c-0.8-0.1-1.6-0.2-2.3-0.2c-1.5-0.1-2.9,0.4-4,1.4
				c-0.5,0.5-0.9,1.2-1.1,1.9c-0.2,1.2-0.4,2.4-0.3,3.6v1.3h8.4c-0.1,0.5-0.1,1-0.2,1.5c0,0.5-0.1,1.1-0.1,1.7v0.5h-8.1l-0.1,2.3
				l-0.4,10.1l-0.2,11.1l-0.1,3.3h-0.8c-0.4,0-0.7,0-1,0s-0.6,0-0.9,0s-0.5,0-0.8,0c-0.3,0-0.7,0-1.1,0h-0.8c0.1-0.8,0.1-1.4,0.1-2
				c0-0.6,0.1-1,0.1-1.4c0.1-2.1,0.3-4.9,0.4-8.3c0.1-3.5,0.3-7.8,0.5-13.1l0.1-1.9h-3.8c0.1-0.5,0.1-1.1,0.2-1.6c0-0.7,0-1.3,0.1-2
				h3.9v-1.2c0-0.9,0-1.6,0-2.2c0-0.6,0-1.1,0.1-1.5c0-0.4,0.1-0.8,0.2-1.2c0.1-0.3,0.2-0.7,0.2-1c0.4-1.5,1.4-2.7,2.8-3.5
				c1.7-0.9,3.6-1.3,5.6-1.2c0.9,0,1.8,0,2.7,0.1c1.1,0.2,2.2,0.4,3.3,0.7c0,0.7,0,1.3,0,1.7c0,0.4,0.1,0.9,0.2,1.5L663.4,289z"/>
		</g>
		<g>
			<path fill="#78797C" d="M695.8,310.6c0,2.6-0.5,5.2-1.5,7.6c-2.5,6.1-7.4,9.2-14.8,9.2c-2.1,0-4.2-0.3-6.2-1.1
				c-1.8-0.7-3.4-1.7-4.8-3.1c-1.3-1.4-2.4-3-3.1-4.8c-0.7-2-1.1-4.1-1.1-6.2c0-2.4,0.3-4.8,1.1-7c0.7-2,1.8-3.7,3.2-5.2
				c1.5-1.5,3.2-2.6,5.1-3.3c2.2-0.8,4.5-1.2,6.8-1.2c4.7,0,8.4,1.3,11.1,4C694.5,302.1,695.8,305.8,695.8,310.6z M690.6,310.6
				c0-3.7-0.9-6.4-2.6-8.3c-1.7-1.9-4.2-2.9-7.5-2.9c-3.4,0-6,1.1-7.9,3.4c-1.9,2.3-2.8,5.5-2.8,9.6c0,3.5,0.9,6.2,2.7,8.2
				c1.9,2.1,4.6,3.2,7.4,3c3,0.2,6-1.1,7.9-3.5C689.6,317.8,690.6,314.6,690.6,310.6L690.6,310.6z"/>
		</g>
		<g>
			<path fill="#78797C" d="M720.8,300.2c-0.8-0.2-1.4-0.3-1.9-0.4c-0.5-0.1-1-0.1-1.5-0.1c-1.8,0-3.7,0.6-5.1,1.7
				c-1.5,1.2-2.5,2.9-3,4.8c-0.3,1.1-0.5,2.3-0.6,3.5c-0.1,0.8-0.1,1.9-0.2,3c0,1.1-0.1,2.3-0.1,3.5c0,1.2-0.1,2.6-0.1,3.9
				c0,1.3,0,2.6,0,3.9v2.7h-0.7c-0.3,0-0.6-0.1-1-0.1h-0.9c-0.3,0-0.6,0-1,0c-0.3,0-0.6,0-1,0h-0.8l0.2-3c0.1-2.2,0.2-4.5,0.4-6.7
				c0.1-2.3,0.2-4.4,0.3-6.5c0.1-2.1,0.1-4,0.2-5.8c0-1.8,0.1-3.4,0.1-4.7v-3.8c0.6,0,1.1,0.1,1.4,0.1h2.3c0.3,0,0.8,0,1.4-0.1
				l-0.2,5c0.2-0.4,0.4-0.7,0.6-1.1c0.2-0.3,0.4-0.6,0.6-0.9c1.8-2.5,4.5-3.7,8.1-3.7c0.4,0,0.7,0,1.1,0.1c0.3,0,0.7,0.1,1.3,0.2
				v1.9c0,0.6,0.1,1.2,0.1,1.8L720.8,300.2z"/>
		</g>
		<g>
			<path fill="#78797C" d="M771.8,303.6c0,0.5,0,1.2-0.1,2c-0.1,0.8-0.1,1.7-0.2,2.7c-0.1,0.8-0.2,1.9-0.2,3.2
				c-0.1,1.3-0.1,2.8-0.2,4.5c-0.1,1.4-0.1,2.5-0.2,3.5c0,0.9,0,1.7-0.1,2.5c-0.1,0.7,0,1.5-0.1,2.2c0,0.7,0,1.5,0,2.5h-0.7
				c-0.3,0-0.6-0.1-0.9-0.1h-0.8c-0.3,0-0.7,0-1,0c-0.3,0-0.7,0-1.1,0h-0.8c0.1-0.9,0.1-1.8,0.2-2.5c0-0.7,0.1-1.4,0.1-2.1
				c0-0.7,0.1-1.5,0.1-2.3c0-0.8,0.1-1.9,0.2-3.2l0.4-7c0-0.7,0.1-1.4,0.1-2c0-0.7,0-1.3,0-1.8c0-4.1-2.1-6.2-6.2-6.2
				c-2.8-0.1-5.4,1.4-6.9,3.7c-0.4,0.6-0.7,1.3-1,2c-0.3,0.8-0.5,1.7-0.7,2.6c-0.2,1-0.3,2.3-0.4,3.7c-0.1,1.4-0.2,3.2-0.2,5.3
				l-0.2,6.7l-0.1,3h-0.7c-0.3,0-0.6-0.1-1-0.1h-0.9c-0.2,0-0.5,0-0.8,0c-0.3,0-0.7,0-1.1,0h-0.8c0-0.9,0.1-1.6,0.1-2.3
				c0.1-0.6,0.1-1.2,0.1-1.9c0-0.6,0.1-1.4,0.1-2.2c0-0.8,0.1-2,0.2-3.4c0.1-2.1,0.2-3.7,0.2-4.9c0-1.2,0.1-2.1,0.1-2.9
				c0-0.7,0.1-1.3,0.1-1.7V306c0.1-1.7-0.4-3.4-1.5-4.8c-1.2-1.2-2.8-1.8-4.5-1.6c-1.8,0-3.5,0.6-4.9,1.6c-1.5,1.2-2.5,2.8-3,4.6
				c-0.2,0.6-0.4,1.2-0.5,1.9c-0.1,0.7-0.2,1.4-0.3,2.3c-0.1,0.9-0.2,1.9-0.2,3c-0.1,1.1-0.1,2.5-0.2,4c-0.1,1.2-0.1,2.2-0.1,3
				c0,0.8,0,1.5-0.1,2.2s0,1.4,0,2v2.5h-0.9c-0.4,0-0.7,0-1,0s-0.6,0-0.8,0c-0.2,0-0.5,0-0.8,0s-0.7,0-1.1,0h-0.8
				c0.1-1.4,0.2-2.5,0.3-3.5c0.1-1,0.2-2,0.2-3.1c0.1-1.1,0.1-2.3,0.2-3.8c0.1-1.5,0.1-3.4,0.2-5.9c0.1-2.1,0.2-3.9,0.2-5.2
				c0.1-1.3,0.1-2.4,0.1-3.4c0-0.9,0-1.8,0.1-2.7c0.1-0.8,0-1.9,0-3.1c0.6,0,1,0.1,1.4,0.1h2.4c0.3,0,0.8,0,1.3-0.1l-0.2,5.6
				c0.4-0.8,0.9-1.5,1.5-2.2c1-1.3,2.3-2.3,3.9-3c1.6-0.7,3.4-1.1,5.2-1.1c1.9,0,3.7,0.4,5.4,1.3c0.9,0.4,1.7,1,2.3,1.8
				c0.6,1,1.1,2,1.4,3.1c0.2-0.3,0.4-0.6,0.6-0.9c0.1-0.3,0.3-0.5,0.5-0.7c1-1.5,2.4-2.6,4-3.4c1.8-0.8,3.7-1.2,5.6-1.2
				c3,0,5.3,0.7,7,2.2C771.1,299.1,772,301.3,771.8,303.6z"/>
		</g>
		<g>
			<path fill="#78797C" d="M798.4,300.6c-1.1-0.4-2.3-0.8-3.4-1.1c-1-0.2-2.1-0.3-3.1-0.3c-1.6-0.1-3.3,0.3-4.7,1
				c-1.1,0.6-1.7,1.7-1.6,2.9c0,1.3,0.7,2.6,2.2,3.9c0.2,0.2,0.3,0.3,0.5,0.5l0.6,0.5c0.2,0.2,0.6,0.5,1,0.8l1.5,1.2
				c1.6,1.3,2.8,2.3,3.5,3c2.3,2.1,3.4,4.3,3.4,6.7c0,2.2-1,4.3-2.9,5.6c-2.3,1.5-4.9,2.3-7.7,2.1c-0.5,0-1,0-1.6-0.1
				s-1.3-0.1-2-0.2c-0.7-0.1-1.1-0.1-1.5-0.2l-1.2-0.2c-0.4-0.1-0.8-0.2-1.2-0.3c-0.4-0.1-0.9-0.2-1.5-0.3l-0.1-0.7l-0.1-1.6
				l-0.2-1.5l-0.1-0.6c1.2,0.5,2.1,0.8,2.8,1.1c0.7,0.2,1.5,0.4,2.3,0.6c1.1,0.2,2.3,0.4,3.5,0.4c1.6,0.1,3.3-0.3,4.6-1.2
				c1.1-0.7,1.7-2,1.6-3.3c0-1.1-0.4-2.2-1.2-3c-0.3-0.3-0.7-0.7-1.1-1c-0.4-0.4-1-0.8-1.6-1.4l-2-1.6c-0.9-0.7-1.7-1.4-2.3-1.9
				c-0.6-0.5-1.1-1-1.4-1.3c-2-2-3-4-3-6.1c-0.1-2.1,1-4.2,2.8-5.4c1.9-1.3,4.4-2,7.6-2c1.1,0,2.3,0.1,3.4,0.2
				c1.2,0.1,2.5,0.3,4.1,0.6v0.6c0,0.6,0,1.2,0,1.6c0,0.5,0.1,1,0.2,1.4L798.4,300.6z"/>
		</g>
	</g>
	<g>
		<g>
			<g>
				<g>
					<path fill="#78797C" d="M214.5,359.4c-1-5.5-2.4-11.4-4.4-17.7c3.5-1.8,6.9-3.6,9.8-5.4c7.5-4.6,12.8-9.1,16-11.8
						c3.1-2.9,4.2-4,2.6-2.8c-0.8,0.6-1.9,1.4-3.4,2.4c-1.5,0.9-3.3,2.1-5.4,3.2c-4.3,2.4-9.9,5.3-16.9,8.2
						c-1.3,0.5-2.8,1.1-4.2,1.6c-1.9-5.4-4.2-11-6.9-16.8c1.2-0.6,2.5-1.3,3.6-1.9c2-1.2,4-2.3,5.9-3.4c0.9-0.5,1.8-1.1,2.7-1.6
						c0.9-0.5,1.7-1.1,2.5-1.6c1.6-1,3.1-2,4.5-2.9c0.7-0.5,1.4-0.9,2-1.3c0.6-0.4,1.2-0.9,1.7-1.3c1.1-0.8,2.1-1.5,2.9-2.1
						c3.3-2.5,4.5-3.5,2.8-2.5c-1.7,1-4.8,2.6-9.2,4.6c-2.2,1-4.8,2.1-7.6,3.3c-1.4,0.7-2.9,1.2-4.5,1.9c-1.6,0.6-3.2,1.3-5,2
						c-1.5,0.6-3,1.2-4.6,1.7c-3.4-6.9-7.4-14-12-21.3c-0.5-0.8-1.1-1.7-1.6-2.5c4.3-3.1,8.3-6.2,12-9.2c4.2-3.3,7.8-6.7,11.1-9.7
						c0.8-0.7,1.6-1.5,2.4-2.2c0.8-0.7,1.5-1.5,2.2-2.2c1.4-1.4,2.7-2.7,4-3.9c2.4-2.5,4.3-4.6,5.8-6.2c2.9-3.2,3.8-4.5,2.3-3.1
						c-1.5,1.4-4.5,3.5-8.6,6.5c-4.2,2.9-9.6,6.6-16.2,10.8c-0.8,0.5-1.7,1.1-2.5,1.6c-0.9,0.6-1.8,1.1-2.6,1.6
						c-1.8,1.1-3.7,2.3-5.6,3.5c-1,0.6-2,1.2-3,1.8c-1,0.6-2,1.2-3.1,1.8c-1,0.6-2,1.2-3,1.8c-1.8-2.5-3.6-5.1-5.5-7.7
						c-3.2,0.4-6.4,0.6-9.6,0.6c-0.8,0-1.7-0.1-2.5-0.1c3.2,3.9,6.4,7.9,9.4,11.8c-7.7,4.3-16.2,8.7-25.6,13
						c-1.4,0.6-2.8,1.3-4.2,1.9c-1.4,0.6-2.8,1.2-4.3,1.8c-2.7,1.2-5.4,2.2-8,3.2c-0.9-1.4-1.7-2.8-2.7-4.2
						c-4.7-6.8-10.4-13.8-16.9-20.8c5.4-4,11.1-8.4,17-13.1l-4.2-1.1l0-5.3c0-0.9,0-1.8,0-2.7c-6.4,5.7-12.6,11.1-18.4,16.3
						c-1.8-1.8-3.6-3.6-5.5-5.4c-5.1-4.7-10.3-9.1-15.6-13.3c0.5-1,1.1-1.9,1.6-2.8c6.4-11.1,13.9-23.1,22.5-35.8
						c6.6,5.8,13.4,12,20.1,18.6l4.7,2.2c6.5,3.1,12.3,5.3,17.4,6.6c1.2,0.3,2.4,0.5,3.6,0.8c9-8,17.7-16.3,25.6-24.3
						c-1.1-1.1-2.4-2.4-4.2-4c-0.7-0.7-1.6-1.4-2.4-2.2c-8.2,7.2-17.3,15.2-27.1,23.8c-0.1-0.1-0.2-0.2-0.3-0.3
						c-10.3-10.5-21-20.3-31.8-29.1c7.5-10.8,15.2-21.1,22.6-30.5c-1-1.7-2-3.3-2.6-4.9c-0.5-1.1-0.9-2.2-1.2-3.4
						c-2.2,2.3-4.4,4.7-6.7,7.3c-6.5,7.4-13.4,15.7-20.1,25.1c-4.5-3.4-8.9-6.7-13.4-9.8c-5.9-4.1-11.8-7.9-17.6-11.3
						c6.9-14.9,15.5-28.9,24.7-41.3c9.5,6.5,19.6,13.8,30,21.9c0.6,0.5,1.3,1,1.9,1.5c-0.2-1.8-0.3-3.7-0.3-5.5
						c0.1-2.4,0.5-4.8,1-7.1c-0.4-0.3-0.7-0.6-1.1-0.8c-0.8-0.6-1.6-1.3-2.5-1.9c-0.8-0.6-1.7-1.2-2.5-1.8c-1.7-1.2-3.3-2.4-5-3.5
						c-1.7-1.1-3.3-2.2-5-3.4c-0.8-0.6-1.7-1.1-2.5-1.6c-0.8-0.5-1.7-1.1-2.5-1.6c-1.7-1-3.3-2.1-5-3.1c-0.3-0.2-0.6-0.4-0.9-0.5
						c4.5-5.7,9.1-11,13.6-15.9c1.3-1.4,2.6-2.9,4-4.2c1.3-1.4,2.6-2.7,3.9-4c1.3-1.3,2.6-2.5,3.8-3.7c0.6-0.6,1.2-1.2,1.8-1.8
						c0.6-0.6,1.2-1.2,1.9-1.7c3.2-3,6.2-5.7,9-8.2c0.4,0.2,0.8,0.4,1.2,0.7c1.7,1,3.4,1.9,5.1,2.8c1.6,0.9,3.2,1.9,4.7,2.8
						c3.1,1.8,6,3.5,8.6,5c10.3,6.4,16.6,9.8,14.3,8.1c-1.1-0.8-2.9-2.6-5.4-5c-1.3-1.2-2.7-2.6-4.3-4.1c-0.8-0.8-1.6-1.6-2.6-2.4
						c-0.9-0.8-1.9-1.7-2.9-2.5c-2.1-1.8-4.3-3.7-6.7-5.7c-0.6-0.5-1.2-1-1.9-1.5c-0.7-0.5-1.3-1-2-1.5c-0.7-0.5-1.5-1.1-2.2-1.6
						c3.2-2.7,5.9-4.9,8.1-6.7c5.1-4.1,6.8-5.7,4.3-3.9c-1.3,0.9-3.1,2-5.4,3.5c-1.2,0.7-2.4,1.6-3.8,2.4c-1.4,0.9-2.9,1.8-4.5,2.9
						c-0.2,0.1-0.4,0.3-0.6,0.4c-0.1,0-0.1-0.1-0.2-0.1c-1.5-1-3-2.1-4.6-3.2c-1.6-1-3.3-2.1-5-3.1c-1.7-1-3.5-2.1-5.3-3.2
						c-0.9-0.6-1.9-1-2.8-1.5c-1-0.5-1.9-1-2.9-1.5c-2-1-4-2-5.9-2.9c-1.1-0.5-2.2-0.9-3.4-1.4c2.8-1.9,5.7-3.8,8.5-5.5
						c8.6-5.3,17-9.9,24.8-13.6c1-0.5,2-0.9,2.9-1.4c3.6,1.4,7.1,2.9,10.5,4.4c0.8,0.4,1.6,0.7,2.5,1.1c0.8,0.4,1.6,0.7,2.4,1.1
						c1.6,0.7,3.1,1.4,4.6,2.2c1.5,0.7,2.9,1.4,4.2,2.1c1.3,0.7,2.6,1.4,3.9,2c4.9,2.6,8.8,4.7,11.2,6c2.4,1.3,3.3,1.7,2.3,0.9
						c-1-0.8-2.7-2.3-5.1-4.5c-1.2-1.1-2.6-2.3-4.2-3.6c-1.6-1.3-3.4-2.7-5.3-4.3c-4-3-8.8-6.4-14.6-9.7c-1.1-0.6-2.2-1.2-3.3-1.8
						c10.2-4.5,18.6-7.7,24.4-9.8c7.9-2.9,10.7-4,6.9-2.8c-1.9,0.6-4.6,1.3-8,2.3c-1.7,0.4-3.5,1-5.6,1.6c-2,0.6-4.2,1.2-6.6,2
						c-4.4,1.4-9.3,3-14.7,5c-4.1-2-8.5-3.9-13.4-5.6c-1.3-0.5-2.6-0.9-3.9-1.3c12.9-3.2,26.3-5,40.2-5c45,0,85.7,18.1,115.3,47.4
						C265.4,49.3,221,28.3,171.6,28.3C76.8,28.3,0,105.2,0,200c0,94.8,76.8,171.6,171.6,171.6c61.5,0,115.2-32.3,145.5-80.8
						C293.6,325.6,257.1,350.7,214.5,359.4z M198.2,329.3c1.7,3.3,3.2,6.6,4.6,9.8c-12.8,4.2-28.9,7.7-47.9,8.3
						c-2.3,0.1-4.7,0.1-7,0.1c-0.7-2.6-1.5-5.5-2.5-8.5c1.2-0.2,2.4-0.3,3.6-0.5c12.3-2.2,24.3-5.8,34.9-10c1.3-0.5,2.6-1.1,3.9-1.6
						c1.3-0.5,2.5-1.1,3.8-1.7c1.2-0.6,2.4-1.1,3.6-1.6C196.2,325.5,197.2,327.4,198.2,329.3z M138.2,317.2c0.4-0.1,0.7-0.3,1.1-0.4
						c0.4-0.1,0.7-0.3,1.1-0.4c0.7-0.3,1.5-0.6,2.2-0.9c1.5-0.6,3-1.1,4.4-1.8c1.5-0.7,2.9-1.3,4.4-2c9.6-4.3,18.6-9.5,26.8-15
						c1.4,1.9,2.7,3.9,4.1,5.8c3.5,5.2,6.7,10.3,9.7,15.4c-12.2,4.2-27.1,8.6-44.5,11.7c-1.8,0.3-3.6,0.6-5.4,0.8
						c-1.7-4-3.8-8.3-6.2-12.6C136.6,317.7,137.4,317.5,138.2,317.2z M93.7,279.4c1.7,1.6,3.3,3.2,4.9,4.8
						c-5.4,4.8-10.4,9.3-14.9,13.3c-2.9,2.6-5.7,5-8.1,7.2c-1-1.1-2.1-2.1-3.2-3.2c-2.3-2.1-4.6-4-7-5.8c1.3-2.8,2.7-5.8,4.3-9
						c2.9-5.9,6.3-12.5,10.2-19.5C84.5,271.1,89.1,275.1,93.7,279.4z M89.2,205.3c3.6,2.8,7.3,5.8,11.1,8.9
						c-0.2,0.3-0.4,0.6-0.6,0.9c-2.1,3.3-4.3,6.5-6.3,9.8c-1,1.6-2,3.3-3,4.9c-1,1.7-1.9,3.3-2.9,4.9c-0.5,0.8-0.9,1.6-1.4,2.4
						c-0.4,0.8-0.9,1.6-1.3,2.5c-0.9,1.6-1.8,3.3-2.6,4.9c-0.8,1.6-1.7,3.2-2.5,4.8c-0.4,0.8-0.8,1.6-1.2,2.4
						c-0.4,0.8-0.8,1.6-1.1,2.4c0,0.1-0.1,0.1-0.1,0.2c-4.3-3.1-8.6-6.1-12.8-8.8c-2.5-1.6-5-3.1-7.4-4.5c0.3-1.7,0.6-3.4,0.9-5.2
						c1.6-7.7,3.7-15.8,6.4-24.1c2.1-6.3,4.5-12.8,7.3-19.4C77.3,196.3,83.2,200.6,89.2,205.3z M55.2,209.6
						c-2.6,9.1-4.5,18.2-5.8,26.9c0,0.1,0,0.3-0.1,0.4c-4.6-2.4-9.1-4.6-13.4-6.3c0-0.3,0-0.6,0-0.9c0-0.6,0-1.2,0-1.8
						c0-1.2,0-2.4,0-3.6c0-1.2,0-2.4,0.1-3.6c0-0.6,0-1.2,0-1.8c0-0.6,0-1.2,0.1-1.8c0.1-1.2,0.1-2.5,0.1-3.7
						c0.1-1.2,0.2-2.5,0.3-3.8c0-0.6,0.1-1.3,0.1-1.9c0.1-0.6,0.1-1.3,0.2-1.9c0.4-5.1,1.2-10.3,2-15.6c0.2-1.3,0.5-2.7,0.7-4
						c0.2-1.3,0.6-2.7,0.8-4c0.5-2.4,1.1-4.8,1.7-7.3c1,0.5,2,1,3,1.5c5.8,3,11.9,6.6,18.2,10.6C60.2,194.5,57.5,202.1,55.2,209.6z
						 M66.3,180.5c-7.9-4.3-15.5-7.8-22.7-10.6c0.2-0.6,0.4-1.3,0.6-1.9c0.2-0.7,0.4-1.4,0.7-2c0.5-1.4,0.9-2.7,1.4-4.1
						c0.5-1.4,1-2.7,1.5-4.1l0.4-1l0.4-1c0.3-0.7,0.6-1.4,0.8-2c0.6-1.4,1.1-2.7,1.7-4.1c0.6-1.4,1.2-2.7,1.9-4.1
						c0.7-1.3,1.4-2.7,2-4.1c0.3-0.7,0.7-1.4,1-2l1.1-2l1.1-2c0.4-0.7,0.7-1.3,1.1-2c0.8-1.3,1.6-2.6,2.3-3.9l0.6-1l0.6-0.9l1.2-1.9
						l1.2-1.9l0.6-0.9c7.9,4.6,16.8,10.1,26.5,16.4C83.2,150.8,74,164.4,66.3,180.5z M122.4,85.8c1,0.5,1.9,1,2.9,1.4
						s1.9,0.9,2.8,1.5c1.9,1,3.7,2,5.6,3c0.9,0.5,1.8,1,2.8,1.4c0.5,0.2,0.9,0.5,1.4,0.7c0.5,0.2,0.9,0.5,1.3,0.8
						c0.4,0.2,0.8,0.4,1.2,0.7c-4.9,3.4-10.3,7.5-16.3,12.4c-4.6,3.8-9.5,8.1-14.5,13c-3.7,3.6-7.5,7.5-11.3,11.8
						c-0.7-0.4-1.3-0.7-2-1.1c-1.6-0.9-3.2-1.8-4.8-2.7c-1.6-0.8-3.2-1.7-4.7-2.5c-0.8-0.4-1.6-0.8-2.3-1.2
						c-0.8-0.4-1.5-0.8-2.3-1.1c-1.5-0.8-3-1.5-4.5-2.2c-2.7-1.3-5.4-2.5-8-3.7l0.4-0.6l0.7-0.9l1.4-1.8l1.4-1.8
						c0.5-0.6,0.9-1.2,1.4-1.7c7.6-9.1,16-17.3,24.6-24.5c3.2-2.6,6.4-5.1,9.6-7.5c0.8,0.4,1.5,0.7,2.3,1.1c1.8,0.9,3.6,1.7,5.5,2.6
						C118.6,83.9,120.5,84.9,122.4,85.8z M127.4,44.4c4.8,1.3,9.9,2.9,15.2,4.7c1.9,0.7,3.7,1.3,5.6,2c-3.4,1.4-6.9,2.9-10.5,4.5
						c-0.9,0.4-1.8,0.8-2.7,1.2c-0.9,0.4-1.8,0.9-2.7,1.3c-1.8,0.9-3.7,1.8-5.5,2.7c-1.9,1-3.7,2-5.7,3.1c-1,0.5-1.9,1.1-2.9,1.6
						c-1,0.6-1.9,1.1-2.9,1.7c-1,0.6-2,1.2-3,1.8c-0.9,0.5-1.7,1-2.6,1.6c-0.4-0.1-0.8-0.3-1.1-0.4c-2-0.7-3.9-1.3-5.8-1.9
						c-5.5-1.5-10.6-2.7-15.3-3.4C99.6,56.4,113.1,49.4,127.4,44.4z M82.2,68.8c0.4,0.1,0.8,0.2,1.2,0.4c2.6,0.7,5.4,1.8,8.3,2.9
						c0.4,0.1,0.7,0.3,1.1,0.4c0.4,0.2,0.7,0.3,1.1,0.5c0.8,0.3,1.5,0.6,2.3,0.9c0.8,0.3,1.6,0.6,2.4,0.9c0.4,0.2,0.8,0.3,1.2,0.5
						c0.4,0.2,0.8,0.4,1.2,0.5c0.2,0.1,0.4,0.2,0.6,0.3c-1.5,1-2.9,2.1-4.4,3.2c-1,0.7-2,1.5-3,2.3c-1,0.8-2,1.6-3,2.4
						c-8.1,6.5-16.2,14.1-23.7,23c-0.9,1.1-1.8,2.3-2.8,3.4c-0.5,0.6-0.9,1.1-1.4,1.7c-0.5,0.6-0.9,1.2-1.3,1.8
						c-0.2,0.3-0.4,0.5-0.6,0.8c-0.2-0.1-0.4-0.2-0.7-0.3c-5.9-2.4-11.2-4.3-15.7-5.8C55.1,93.2,67.7,79.8,82.2,68.8z M43.6,110.6
						c4.2,2.1,9.2,4.8,14.8,7.9c-0.6,0.8-1.2,1.7-1.8,2.6c-1.8,2.5-3.3,5.2-5,7.9c-0.8,1.3-1.5,2.7-2.3,4.1
						c-0.4,0.7-0.8,1.4-1.2,2.1c-0.4,0.7-0.7,1.4-1.1,2.1c-0.7,1.4-1.4,2.9-2.1,4.3c-0.7,1.5-1.3,2.9-2,4.4
						c-0.7,1.4-1.2,2.9-1.8,4.4l-0.9,2.2l-0.4,1.1l-0.4,1.1c-0.5,1.5-1,3-1.6,4.5c-0.5,1.5-0.9,3-1.4,4.5c-0.2,0.7-0.5,1.5-0.7,2.2
						c-0.1,0.3-0.2,0.7-0.3,1c-5-1.6-9.6-2.6-14-3.2C25.7,144.6,33.3,126.7,43.6,110.6z M17.6,199.1c0-11.1,1.1-21.8,3.2-32.3
						c1.8,0.4,3.7,0.9,5.6,1.6c2.5,0.8,5.2,1.8,7.9,3c-0.1,0.5-0.2,0.9-0.3,1.4c-0.3,1.5-0.7,3-1,4.5c-0.3,1.5-0.6,3-0.9,4.5
						c-0.1,0.7-0.3,1.5-0.4,2.2c-0.1,0.7-0.2,1.5-0.3,2.2c-0.2,1.5-0.5,3-0.7,4.4c-0.8,5.9-1.2,11.7-1.5,17.4
						c-0.2,5.7-0.1,11.3,0.1,16.7c0.1,1.1,0.1,2.2,0.2,3.3c-3.4-1.2-6.7-2.2-9.7-2.8C18.4,216.7,17.6,207.9,17.6,199.1z M20.3,228.3
						c2.9,1.1,6.1,2.5,9.5,4.3c0.2,2.6,0.5,5.2,0.8,7.8c1.2,10.1,3,19.4,5,27.7c1,3.9,2,7.6,3,11.1
						C29.8,263.6,23.6,246.5,20.3,228.3z M42.4,281.1c-1.4-6.2-2.7-13.2-3.8-21c-1.1-7.4-1.9-15.4-2.3-24.1c3.9,2.2,8,4.8,12.4,7.6
						c-1.5,14.7-1.3,28.2-0.1,39.6c0.1,0.8,0.2,1.5,0.3,2.3c-2-0.9-3.9-1.7-5.9-2.3C42.7,282.5,42.6,281.9,42.4,281.1z M46.4,291.8
						c0.6,0.4,1.2,0.7,1.9,1.1c0.5,0.3,1.1,0.7,1.6,1.1c0.2,1.2,0.4,2.3,0.6,3.4C49.1,295.5,47.7,293.7,46.4,291.8z M53.1,277.5
						c0.1-3,0.2-6.1,0.4-9.4c0.2-3.3,0.5-6.6,0.9-10.1c0.3-3.1,0.8-6.3,1.3-9.5c1.9,1.4,3.9,2.7,5.9,4.2c3.9,2.9,8,6.1,12.1,9.4
						c-0.2,0.5-0.5,1-0.7,1.5c-0.7,1.5-1.3,3-1.9,4.5c-0.6,1.5-1.3,3-1.8,4.4c-2.3,5.8-4.3,11.4-6,16.4c-0.5,1.4-0.9,2.8-1.3,4.1
						c-2.9-2-5.9-3.7-8.8-5.3C53,284.5,53,281.1,53.1,277.5z M59.2,302.5c-0.4,1.5-0.7,2.9-1,4.3c-1.5-1.7-2.9-3.4-4.3-5.1
						c-0.1-1.7-0.3-3.5-0.4-5.3c2,1.5,4.1,3,6.1,4.7C59.5,301.6,59.3,302.1,59.2,302.5z M59.8,308.7c0.7-1.7,1.5-3.5,2.3-5.6
						c1.6,1.4,3.2,2.8,4.9,4.3c0.9,0.9,1.8,1.7,2.7,2.6c-1.8,1.6-3.4,3-4.6,4.2C63.2,312.4,61.5,310.6,59.8,308.7z M65.8,315
						c1.5-1,3.3-2.1,5.4-3.5c3.1,3.2,6.1,6.5,8.7,9.8c-0.5,0-1.1,0.1-1.6,0.2c-1.9,0.1-3.7,0.2-5.3,0.2
						C70.5,319.6,68.1,317.3,65.8,315z M85.2,331.5c-2.8-2-5.5-4.1-8.2-6.3c1.9,0.2,4.1,0.4,6.3,0.5c0.1,0.1,0.1,0.2,0.2,0.3
						c1.4,1.9,2.6,3.8,3.7,5.7C86.5,331.7,85.8,331.6,85.2,331.5z M78,307.2c3.7-2.4,7.8-5.1,12.4-8.3c4.1-2.8,8.6-6,13.4-9.5
						c7.1,7.3,13.8,14.8,19.5,22.3c0,0,0,0,0,0.1c-0.6,0.2-1.1,0.4-1.7,0.6c-1.4,0.5-2.7,0.9-4.1,1.3l-1,0.3l-1,0.3
						c-0.7,0.2-1.3,0.4-2,0.6c-2.7,0.8-5.3,1.5-7.9,2.2c-1.3,0.3-2.6,0.6-3.8,0.9c-0.6,0.1-1.3,0.3-1.9,0.4
						c-0.6,0.1-1.2,0.2-1.9,0.4c-3.6,0.7-6.9,1.3-10.2,1.7C85.3,316,82,311.6,78,307.2z M91,326c3.4,0,6.9-0.2,10.7-0.5
						c2.4-0.3,4.9-0.5,7.5-0.9c1.3-0.2,2.6-0.4,3.9-0.6c1.3-0.3,2.6-0.5,4-0.8c0.7-0.1,1.3-0.3,2-0.4c0.7-0.2,1.4-0.3,2-0.5
						c1.4-0.3,2.8-0.7,4.2-1c1.4-0.4,2.8-0.8,4.2-1.2c2.6,3.8,5,7.6,7.1,11.3c-2.2,0.3-4.4,0.6-6.6,0.8c-2.9,0.3-5.7,0.5-8.5,0.7
						c-1.4,0.1-2.8,0.1-4.1,0.2c-1.4,0.1-2.7,0.1-4.1,0.1c-1.3,0-2.7,0-4,0c-1.3,0-2.6,0-3.9-0.1c-0.6,0-1.3,0-1.9,0
						c-0.6,0-1.3-0.1-1.9-0.1c-1.2-0.1-2.5-0.1-3.7-0.2c-1.5-0.1-2.8-0.2-4.2-0.3C93,330.3,92.1,328.2,91,326z M103.1,342.9
						c-2.5-1.4-5-2.9-7.5-4.4c0-0.1,0-0.2-0.1-0.2c5.7,1.1,12,1.9,18.9,2.3c8.1,0.4,17.1,0.2,26.4-1c0.6,1.2,1.1,2.4,1.6,3.6
						c0.6,1.5,1.2,2.9,1.8,4.3c-8.5-0.1-16.7-0.8-24.4-1.8C114,345,108.4,344,103.1,342.9z M128.5,354c5.9,0.8,12.1,1.4,18.7,1.5
						c0.1,0.3,0.2,0.6,0.3,0.9c0.3,1.1,0.6,2.1,0.8,3.1C141.5,358.1,134.9,356.2,128.5,354z M181.4,362.8c-10.7,0-21.2-1.1-31.3-3
						c-0.1-0.7-0.1-1.4-0.2-2.2c-0.1-0.7-0.2-1.4-0.3-2.1c1.9,0,3.7,0.1,5.7,0c6.4-0.2,12.7-0.9,18.8-1.9c6.1-1.1,12.1-2.5,17.6-4.3
						c4.7-1.5,9.2-3.3,13.3-5.1c1.4,3.5,2.7,6.9,3.7,10.1c0.7,2,1.2,4,1.8,5.9C201,361.9,191.3,362.8,181.4,362.8z"/>
				</g>
				<g>
					<path fill="#78797C" d="M225.9,169.2c-3.1,3.8-12,12.7-25.9,25.3c-1.2,1.1-2.5,2.3-3.8,3.5c1.7,1.5,3.3,2.9,4.6,4.2
						c2.9-3.3,5.6-6.5,8.1-9.5c0.9-1,1.7-2.1,2.5-3c0.8-1,1.6-2,2.3-2.9c1.5-1.9,2.9-3.6,4.1-5.3c2.4-3.3,4.5-6.1,5.9-8.2
						C226.5,169,227.4,167.3,225.9,169.2z"/>
				</g>
			</g>
			<g>
				<path fill="#FFFFFF" d="M130.8,264.7c0-6.3-0.3-11.8-0.7-16.5c6.9,3.3,13.2,5.7,18.8,7c5.6,1.4,11,2.1,16.2,2.1
					c5,0,9.7-0.9,14-2.5c4.4-1.7,7.7-4.1,10-7.2c2.3-3.1,3.5-6.6,3.6-10.7c0.1-2.3-0.2-4.5-0.9-6.5c-0.7-2-1.8-4.1-3.3-6.2
					c-1.6-2.1-4.3-4.9-8.2-8.5c-3.9-3.6-9.5-8.5-16.6-14.8l-7.2-6.3c-2.7-2.4-5.2-4.8-7.4-7.2c-2.2-2.4-4-4.6-5.5-6.8
					c-1.5-2.2-2.6-4.1-3.3-5.9c-0.8-1.8-1.4-3.7-1.7-5.9c-0.4-2.2-0.5-4.4-0.5-6.7c0.2-5.7,2-11.1,5.3-16.1c3.3-5,8.2-9,14.6-12
					c6.4-3,14.8-4.5,25.1-4.5c7.4,0,16.5,1,27.2,3c0,4.3,0.3,9.6,0.9,15.8c-10.1-3.6-19.3-5.4-27.6-5.4c-5.7,0-10.6,0.9-14.5,2.8
					c-3.9,1.9-7,4.3-9.1,7.3c-2.1,3-3.2,6-3.3,9.1c-0.1,1.9,0.1,3.7,0.6,5.5c0.5,1.8,1.2,3.5,2.2,5.1c1.5,2.3,3.3,4.7,5.5,7.1
					c2.2,2.4,5.2,5.3,9.1,8.7c1,0.8,4.7,3.9,11.1,9.4c6.4,5.5,11.1,9.7,14.1,12.7c2.9,3,5.3,5.8,7,8.4c1.7,2.6,3,5.3,3.9,8.3
					c0.9,3,1.3,6.2,1.2,9.7c-0.2,5.3-1.5,10.3-4,14.8c-2.5,4.5-5.9,8.2-10.3,11.1c-4.4,2.9-9.3,4.9-14.6,6.1
					c-5.3,1.2-10.8,1.8-16.6,1.8c-4.6,0-9.3-0.3-14.2-1.1C146.7,268.7,139.7,267.1,130.8,264.7z"/>
			</g>
			<g>
				<path fill="#FFFFFF" d="M254,268.3l3.8-37.6l5.3-70.3L264,145c0.2-3.9,0.4-8.3,0.6-13.3c15.1,0.1,30.5,0.1,46.3,0.1l31.9-0.1
					h10.2c-0.6,4.6-1.1,9.3-1.4,14l-8.9-0.5c-2.2-0.1-6-0.2-11.3-0.3c-5.4-0.1-10.7-0.1-15.9-0.1c-15.7,0-26.7,0.1-32.9,0.3
					l-3.5,46.8c10.3,0.2,19.5,0.3,27.6,0.3c8.9,0,20.5-0.1,34.9-0.4c-0.6,4.7-1.1,9.3-1.4,13.8l-34.4-0.3c-6.7,0-16.1,0.1-28.1,0.4
					l-3.5,49.4l10.4,0.1c18.9,0,31.4-0.1,37.6-0.2c6.2-0.1,13.4-0.4,21.7-0.9c-0.6,4.9-1.1,9.6-1.4,14.1
					c-16.1-0.1-29.6-0.2-40.7-0.2L254,268.3z"/>
			</g>
			<g>
				<path fill="#FFFFFF" d="M390,268.3c2.1-17.2,4.2-38.2,6.1-63.1c2-24.8,3.5-49.3,4.6-73.5c4.6,0.1,8.1,0.1,10.5,0.1l9.3-0.1
					l-5.4,63.4l-4.5,59.8l19,0.1c14.1,0,24.1,0,29.9-0.1c5.8-0.1,11.4-0.3,16.8-0.7c-0.6,4.2-1,8.9-1.5,14.1
					c-15.1-0.1-28.5-0.2-40.1-0.2L390,268.3z"/>
			</g>
			<g>
				<path fill="#FFFFFF" d="M511.8,268.3l2.3-23l3.8-47.9l3-47.2c0.2-2.7,0.3-5.5,0.4-8.2l0.3-10.2l10.3,0.1l9.7-0.1
					c-1.8,16.7-3.3,34.1-4.5,52.2c-2.1,29.1-3.8,57.2-5.2,84.3l-9.4-0.2C521.2,268.1,517.7,268.1,511.8,268.3z"/>
			</g>
			<g>
				<path fill="#FFFFFF" d="M577.8,264.7c0-6.3-0.3-11.8-0.7-16.5c7,3.3,13.2,5.7,18.8,7c5.6,1.4,11,2.1,16.2,2.1
					c5,0,9.7-0.9,14-2.5c4.4-1.7,7.7-4.1,10-7.2c2.3-3.1,3.5-6.6,3.6-10.7c0.1-2.3-0.2-4.5-0.9-6.5c-0.7-2-1.8-4.1-3.3-6.2
					c-1.6-2.1-4.3-4.9-8.2-8.5c-3.9-3.6-9.5-8.5-16.6-14.8l-7.2-6.3c-2.7-2.4-5.2-4.8-7.4-7.2c-2.2-2.4-4-4.6-5.5-6.8
					c-1.5-2.2-2.6-4.1-3.3-5.9c-0.8-1.8-1.4-3.7-1.7-5.9c-0.4-2.2-0.6-4.4-0.5-6.7c0.2-5.7,1.9-11.1,5.3-16.1c3.3-5,8.2-9,14.6-12
					c6.4-3,14.8-4.5,25.1-4.5c7.4,0,16.5,1,27.2,3c0,4.3,0.3,9.6,0.8,15.8c-10.1-3.6-19.3-5.4-27.6-5.4c-5.7,0-10.6,0.9-14.5,2.8
					c-3.9,1.9-7,4.3-9.1,7.3c-2.1,3-3.2,6-3.3,9.1c-0.1,1.9,0.1,3.7,0.6,5.5c0.5,1.8,1.2,3.5,2.2,5.1c1.4,2.3,3.3,4.7,5.5,7.1
					c2.2,2.4,5.2,5.3,9.1,8.7c1,0.8,4.7,3.9,11.1,9.4c6.4,5.5,11.1,9.7,14.1,12.7c2.9,3,5.3,5.8,7,8.4c1.7,2.6,3,5.3,3.9,8.3
					c0.9,3,1.3,6.2,1.2,9.7c-0.2,5.3-1.5,10.3-4,14.8c-2.5,4.5-5.9,8.2-10.3,11.1c-4.4,2.9-9.3,4.9-14.6,6.1
					c-5.3,1.2-10.8,1.8-16.6,1.8c-4.6,0-9.3-0.3-14.2-1.1C593.7,268.7,586.8,267.1,577.8,264.7z"/>
			</g>
			<g>
				<path fill="#FFFFFF" d="M701.1,268.3l3.8-37.6l5.3-70.3L711,145c0.2-3.9,0.4-8.3,0.6-13.3c15.1,0.1,30.5,0.1,46.3,0.1l31.9-0.1
					H800c-0.6,4.6-1.1,9.3-1.4,14l-8.9-0.5c-2.2-0.1-6-0.2-11.3-0.3c-5.4-0.1-10.7-0.1-15.9-0.1c-15.7,0-26.7,0.1-32.9,0.3
					l-3.4,46.8c10.3,0.2,19.5,0.3,27.6,0.3c8.9,0,20.5-0.1,34.9-0.4c-0.6,4.7-1.1,9.3-1.4,13.8l-34.4-0.3c-6.7,0-16.1,0.1-28.1,0.4
					l-3.5,49.4l10.4,0.1c18.9,0,31.4-0.1,37.6-0.2c6.2-0.1,13.4-0.4,21.7-0.9c-0.6,4.9-1.1,9.6-1.4,14.1
					c-16.1-0.1-29.6-0.2-40.7-0.2L701.1,268.3z"/>
			</g>
			<g>
				<g>
					<path fill="#0D67B1" d="M130.8,264.7c0-6.3-0.3-11.8-0.7-16.5c6.9,3.3,13.2,5.7,18.8,7c5.6,1.4,11,2.1,16.2,2.1
						c5,0,9.7-0.9,14-2.5c4.4-1.7,7.7-4.1,10-7.2c2.3-3.1,3.5-6.6,3.6-10.7c0.1-2.3-0.2-4.5-0.9-6.5c-0.7-2-1.8-4.1-3.3-6.2
						c-1.6-2.1-4.3-4.9-8.2-8.5c-3.9-3.6-9.5-8.5-16.6-14.8l-7.2-6.3c-2.7-2.4-5.2-4.8-7.4-7.2c-2.2-2.4-4-4.6-5.5-6.8
						c-1.5-2.2-2.6-4.1-3.3-5.9c-0.8-1.8-1.4-3.7-1.7-5.9c-0.4-2.2-0.5-4.4-0.5-6.7c0.2-5.7,2-11.1,5.3-16.1c3.3-5,8.2-9,14.6-12
						c6.4-3,14.8-4.5,25.1-4.5c7.4,0,16.5,1,27.2,3c0,4.3,0.3,9.6,0.9,15.8c-10.1-3.6-19.3-5.4-27.6-5.4c-5.7,0-10.6,0.9-14.5,2.8
						c-3.9,1.9-7,4.3-9.1,7.3c-2.1,3-3.2,6-3.3,9.1c-0.1,1.9,0.1,3.7,0.6,5.5c0.5,1.8,1.2,3.5,2.2,5.1c1.5,2.3,3.3,4.7,5.5,7.1
						c2.2,2.4,5.2,5.3,9.1,8.7c1,0.8,4.7,3.9,11.1,9.4c6.4,5.5,11.1,9.7,14.1,12.7c2.9,3,5.3,5.8,7,8.4c1.7,2.6,3,5.3,3.9,8.3
						c0.9,3,1.3,6.2,1.2,9.7c-0.2,5.3-1.5,10.3-4,14.8c-2.5,4.5-5.9,8.2-10.3,11.1c-4.4,2.9-9.3,4.9-14.6,6.1
						c-5.3,1.2-10.8,1.8-16.6,1.8c-4.6,0-9.3-0.3-14.2-1.1C146.7,268.7,139.7,267.1,130.8,264.7z"/>
				</g>
				<g>
					<path fill="#0D67B1" d="M254,268.3l3.8-37.6l5.3-70.3L264,145c0.2-3.9,0.4-8.3,0.6-13.3c15.1,0.1,30.5,0.1,46.3,0.1l31.9-0.1
						h10.2c-0.6,4.6-1.1,9.3-1.4,14l-8.9-0.5c-2.2-0.1-6-0.2-11.3-0.3c-5.4-0.1-10.7-0.1-15.9-0.1c-15.7,0-26.7,0.1-32.9,0.3
						l-3.5,46.8c10.3,0.2,19.5,0.3,27.6,0.3c8.9,0,20.5-0.1,34.9-0.4c-0.6,4.7-1.1,9.3-1.4,13.8l-34.4-0.3c-6.7,0-16.1,0.1-28.1,0.4
						l-3.5,49.4l10.4,0.1c18.9,0,31.4-0.1,37.6-0.2c6.2-0.1,13.4-0.4,21.7-0.9c-0.6,4.9-1.1,9.6-1.4,14.1
						c-16.1-0.1-29.6-0.2-40.7-0.2L254,268.3z"/>
				</g>
				<g>
					<path fill="#0D67B1" d="M390,268.3c2.1-17.2,4.2-38.2,6.1-63.1c2-24.8,3.5-49.3,4.6-73.5c4.6,0.1,8.1,0.1,10.5,0.1l9.3-0.1
						l-5.4,63.4l-4.5,59.8l19,0.1c14.1,0,24.1,0,29.9-0.1c5.8-0.1,11.4-0.3,16.8-0.7c-0.6,4.2-1,8.9-1.5,14.1
						c-15.1-0.1-28.5-0.2-40.1-0.2L390,268.3z"/>
				</g>
				<g>
					<path fill="#0D67B1" d="M511.8,268.3l2.3-23l3.8-47.9l3-47.2c0.2-2.7,0.3-5.5,0.4-8.2l0.3-10.2l10.3,0.1l9.7-0.1
						c-1.8,16.7-3.3,34.1-4.5,52.2c-2.1,29.1-3.8,57.2-5.2,84.3l-9.4-0.2C521.2,268.1,517.7,268.1,511.8,268.3z"/>
				</g>
				<g>
					<path fill="#0D67B1" d="M577.8,264.7c0-6.3-0.3-11.8-0.7-16.5c7,3.3,13.2,5.7,18.8,7c5.6,1.4,11,2.1,16.2,2.1
						c5,0,9.7-0.9,14-2.5c4.4-1.7,7.7-4.1,10-7.2c2.3-3.1,3.5-6.6,3.6-10.7c0.1-2.3-0.2-4.5-0.9-6.5c-0.7-2-1.8-4.1-3.3-6.2
						c-1.6-2.1-4.3-4.9-8.2-8.5c-3.9-3.6-9.5-8.5-16.6-14.8l-7.2-6.3c-2.7-2.4-5.2-4.8-7.4-7.2c-2.2-2.4-4-4.6-5.5-6.8
						c-1.5-2.2-2.6-4.1-3.3-5.9c-0.8-1.8-1.4-3.7-1.7-5.9c-0.4-2.2-0.6-4.4-0.5-6.7c0.2-5.7,1.9-11.1,5.3-16.1c3.3-5,8.2-9,14.6-12
						c6.4-3,14.8-4.5,25.1-4.5c7.4,0,16.5,1,27.2,3c0,4.3,0.3,9.6,0.8,15.8c-10.1-3.6-19.3-5.4-27.6-5.4c-5.7,0-10.6,0.9-14.5,2.8
						c-3.9,1.9-7,4.3-9.1,7.3c-2.1,3-3.2,6-3.3,9.1c-0.1,1.9,0.1,3.7,0.6,5.5c0.5,1.8,1.2,3.5,2.2,5.1c1.4,2.3,3.3,4.7,5.5,7.1
						c2.2,2.4,5.2,5.3,9.1,8.7c1,0.8,4.7,3.9,11.1,9.4c6.4,5.5,11.1,9.7,14.1,12.7c2.9,3,5.3,5.8,7,8.4c1.7,2.6,3,5.3,3.9,8.3
						c0.9,3,1.3,6.2,1.2,9.7c-0.2,5.3-1.5,10.3-4,14.8c-2.5,4.5-5.9,8.2-10.3,11.1c-4.4,2.9-9.3,4.9-14.6,6.1
						c-5.3,1.2-10.8,1.8-16.6,1.8c-4.6,0-9.3-0.3-14.2-1.1C593.7,268.7,586.8,267.1,577.8,264.7z"/>
				</g>
				<g>
					<path fill="#0D67B1" d="M701.1,268.3l3.8-37.6l5.3-70.3L711,145c0.2-3.9,0.4-8.3,0.6-13.3c15.1,0.1,30.5,0.1,46.3,0.1l31.9-0.1
						H800c-0.6,4.6-1.1,9.3-1.4,14l-8.9-0.5c-2.2-0.1-6-0.2-11.3-0.3c-5.4-0.1-10.7-0.1-15.9-0.1c-15.7,0-26.7,0.1-32.9,0.3
						l-3.4,46.8c10.3,0.2,19.5,0.3,27.6,0.3c8.9,0,20.5-0.1,34.9-0.4c-0.6,4.7-1.1,9.3-1.4,13.8l-34.4-0.3c-6.7,0-16.1,0.1-28.1,0.4
						l-3.5,49.4l10.4,0.1c18.9,0,31.4-0.1,37.6-0.2c6.2-0.1,13.4-0.4,21.7-0.9c-0.6,4.9-1.1,9.6-1.4,14.1
						c-16.1-0.1-29.6-0.2-40.7-0.2L701.1,268.3z"/>
				</g>
			</g>
		</g>
	</g>
</g>
</svg>
