<?xml version="1.0" encoding="UTF-8"?> <svg xmlns="http://www.w3.org/2000/svg" id="Layer_1" data-name="Layer 1" viewBox="0 0 216.7 216.7"><defs><style>.cls-1{fill:#001628;}.cls-2{fill:#fff;}.cls-3{fill:#00b6ac;}</style></defs><rect class="cls-1" width="216.7" height="216.69" rx="108.3"></rect><rect class="cls-2" x="39.6" y="132.9" width="137.2" height="2"></rect><circle class="cls-1" cx="108.2" cy="133.9" r="5.7"></circle><path class="cls-3" d="M108.2,140.7a6.8,6.8,0,1,1,6.8-6.8A6.8,6.8,0,0,1,108.2,140.7Zm0-11.5a4.8,4.8,0,0,0,0,9.5,4.8,4.8,0,1,0,0-9.5Z"></path><path class="cls-3" d="M171.2,150.9h-76a1.5,1.5,0,0,1-1.5-1.5,1.5,1.5,0,0,1,1.5-1.5h76a4,4,0,0,0,4-4V55.1a4,4,0,0,0-4-4H45a4,4,0,0,0-4,4v88.8a4,4,0,0,0,4,4H83.2a1.5,1.5,0,0,1,1.5,1.5,1.5,1.5,0,0,1-1.5,1.5H45a7.1,7.1,0,0,1-7-7V55.1a7,7,0,0,1,7-7H171.2a7,7,0,0,1,7,7v88.8A7,7,0,0,1,171.2,150.9Z"></path><path class="cls-3" d="M132.4,168.4H83.8a1.5,1.5,0,0,1-1.5-1.5,1.5,1.5,0,0,1,1.5-1.5h5.6a4.4,4.4,0,0,0,4.3-4.4V149.4a1.5,1.5,0,0,1,3,0V161a7.4,7.4,0,0,1-1.4,4.4h25.6a7.4,7.4,0,0,1-1.4-4.4V149.4a1.5,1.5,0,1,1,3,0V161a4.4,4.4,0,0,0,4.3,4.4h5.6a1.5,1.5,0,0,1,1.5,1.5A1.5,1.5,0,0,1,132.4,168.4Z"></path><path class="cls-1" d="M81.7,93.4V88.1a4,4,0,0,1,3-3.8L89.8,83l-2.7-4.6a4.1,4.1,0,0,1,.6-4.8l3.8-3.8a4.1,4.1,0,0,1,4.8-.6l4.5,2.7,1.4-5.1a4,4,0,0,1,3.8-3h5.3a4.2,4.2,0,0,1,3.9,3l1.3,5.1,4.5-2.7a4.1,4.1,0,0,1,4.8.6l3.8,3.8a3.9,3.9,0,0,1,.6,4.8L127.5,83l5.1,1.3a3.9,3.9,0,0,1,3,3.8v5.3a4.1,4.1,0,0,1-3,3.9l-5.1,1.3,2.7,4.5a3.9,3.9,0,0,1-.6,4.8l-3.8,3.8a3.9,3.9,0,0,1-4.8.6l-4.5-2.7-1.3,5.1h0a4.1,4.1,0,0,1-3.9,3H106a3.9,3.9,0,0,1-3.8-3l-1.4-5.1-4.5,2.7a3.9,3.9,0,0,1-4.8-.6l-3.8-3.8a4.1,4.1,0,0,1-.6-4.8l2.7-4.5-5.1-1.3A4.2,4.2,0,0,1,81.7,93.4Z"></path><path class="cls-2" d="M111.3,119.2H106a5.5,5.5,0,0,1-5.3-4.1l-.8-3.2-2.8,1.7a5.6,5.6,0,0,1-6.7-.8L86.7,109a5.5,5.5,0,0,1-.9-6.6l1.7-2.9-3.2-.8a5.5,5.5,0,0,1-4.1-5.3V88.1a5.5,5.5,0,0,1,4.1-5.3l3.2-.8-1.7-2.8a5.4,5.4,0,0,1,.9-6.6l3.7-3.8a5.6,5.6,0,0,1,6.7-.9l2.8,1.7.8-3.2a5.5,5.5,0,0,1,5.3-4.1h5.3a5.5,5.5,0,0,1,5.3,4.1l.8,3.2,2.8-1.7a5.6,5.6,0,0,1,6.7.9l3.7,3.8a5.4,5.4,0,0,1,.9,6.6L129.8,82l3.2.8a5.5,5.5,0,0,1,4.1,5.3v5.3a5.5,5.5,0,0,1-4.1,5.3l-3.2.8,1.7,2.8a5.6,5.6,0,0,1-.9,6.7l-3.7,3.8a5.6,5.6,0,0,1-6.7.8l-2.8-1.7-.8,3.2A5.5,5.5,0,0,1,111.3,119.2Zm-10.5-11.1h.6a1.4,1.4,0,0,1,.9,1.1l1.3,5.1a2.6,2.6,0,0,0,2.4,1.8h5.3a2.6,2.6,0,0,0,2.4-1.8l1.3-5.1a1.7,1.7,0,0,1,.9-1.1,2,2,0,0,1,1.3.1l4.6,2.7a2.4,2.4,0,0,0,3-.4l3.7-3.7a2.4,2.4,0,0,0,.4-3l-2.7-4.6a2,2,0,0,1-.1-1.3,1.8,1.8,0,0,1,1-.9l5.1-1.3a2.5,2.5,0,0,0,1.9-2.4V88.1a2.6,2.6,0,0,0-1.9-2.4l-5.1-1.3a1.5,1.5,0,0,1-1-.9,2,2,0,0,1,.1-1.3l2.7-4.5a2.4,2.4,0,0,0-.4-3l-3.7-3.8a2.6,2.6,0,0,0-3-.4l-4.6,2.7a1.5,1.5,0,0,1-1.3.1,1.8,1.8,0,0,1-.9-1l-1.3-5.1a2.6,2.6,0,0,0-2.4-1.9H106a2.6,2.6,0,0,0-2.4,1.9l-1.3,5.1a1.5,1.5,0,0,1-.9,1,1.5,1.5,0,0,1-1.3-.1l-4.5-2.7a2.6,2.6,0,0,0-3,.4l-3.8,3.8a2.4,2.4,0,0,0-.4,3l2.7,4.5a1.5,1.5,0,0,1,.1,1.3,1.5,1.5,0,0,1-1,.9l-5.1,1.3a2.6,2.6,0,0,0-1.9,2.4v5.3a2.5,2.5,0,0,0,1.9,2.4l5.1,1.3a1.8,1.8,0,0,1,1,.9,1.5,1.5,0,0,1-.1,1.3l-2.7,4.6a2.4,2.4,0,0,0,.4,3l3.8,3.7a2.4,2.4,0,0,0,3,.4l4.5-2.7Z"></path><circle class="cls-1" cx="155.1" cy="69.6" r="5.7"></circle><path class="cls-2" d="M155.1,76.8a7.2,7.2,0,0,1-7.2-7.2,7.2,7.2,0,1,1,14.4,0A7.2,7.2,0,0,1,155.1,76.8Zm0-11.5a4.3,4.3,0,1,0,4.2,4.3A4.2,4.2,0,0,0,155.1,65.3Z"></path><circle class="cls-1" cx="108.7" cy="90.8" r="8.9"></circle><path class="cls-2" d="M108.7,101.1A10.4,10.4,0,1,1,119,90.8,10.3,10.3,0,0,1,108.7,101.1Zm0-17.7a7.4,7.4,0,1,0,7.3,7.4A7.4,7.4,0,0,0,108.7,83.4Z"></path><circle class="cls-1" cx="155.1" cy="112" r="5.7"></circle><path class="cls-2" d="M155.1,119.2a7.2,7.2,0,1,1,7.2-7.2A7.2,7.2,0,0,1,155.1,119.2Zm0-11.4a4.2,4.2,0,0,0-4.2,4.2,4.2,4.2,0,0,0,8.4,0A4.2,4.2,0,0,0,155.1,107.8Z"></path><circle class="cls-1" cx="62.2" cy="69.6" r="5.7"></circle><path class="cls-2" d="M62.2,76.8A7.2,7.2,0,0,1,55,69.6a7.2,7.2,0,1,1,14.4,0A7.2,7.2,0,0,1,62.2,76.8Zm0-11.5a4.3,4.3,0,1,0,4.2,4.3A4.2,4.2,0,0,0,62.2,65.3Z"></path><circle class="cls-1" cx="62.2" cy="112" r="5.7"></circle><path class="cls-2" d="M62.2,119.2a7.2,7.2,0,1,1,7.2-7.2A7.2,7.2,0,0,1,62.2,119.2Zm0-11.4A4.2,4.2,0,0,0,58,112a4.2,4.2,0,0,0,8.4,0A4.2,4.2,0,0,0,62.2,107.8Z"></path><rect class="cls-2" x="62.2" y="89" width="18.3" height="3"></rect><rect class="cls-2" x="136.6" y="89" width="18.3" height="3"></rect><rect class="cls-2" x="153.6" y="75.3" width="3" height="30.96"></rect><rect class="cls-2" x="60.7" y="75.3" width="3" height="30.96"></rect></svg> 